<?xml version="1.0" encoding="utf-8"?>
<!-- Generator: Adobe Illustrator 27.0.0, SVG Export Plug-In . SVG Version: 6.00 Build 0)  -->
<svg version="1.1" id="Layer_2_00000183947750504872853340000009449973601790894500_"
	 xmlns="http://www.w3.org/2000/svg" xmlns:xlink="http://www.w3.org/1999/xlink" x="0px" y="0px" viewBox="0 0 421 137.2"
	 style="enable-background:new 0 0 421 137.2;" xml:space="preserve">
<style type="text/css">
	.st0{fill:#FFFFFF;}
	.st1{display:none;fill:#FFFFFF;}
</style>
<g id="_图层_1">
	<path class="st0" d="M84.7,102.2c-4.3,4.6-8.5,8.9-12.7,13.3l-0.7-0.1c0-3.1-0.1-6.3,0-9.4c0.2-5.2,0.2-5.2-5-5.8
		c-12.9-1.6-25.3-13.4-28.2-26c-1.9-8.4-2.1-16.6,1.1-24.7c3-7.5,7.9-13.5,14.7-17.8c1.3-0.9,1.5-1.6,0.9-3c-2-4.5-3.8-9.1-5.6-13.7
		C46.4,8.2,50,2,57.4,0.9c38.8-6,75.6,20.7,80.9,59.6c3.8,28-6.2,50.7-28.8,67.8c-6.1,4.6-13,2.6-15.9-4.5
		c-2.6-6.4-5.2-12.8-7.8-19.1C85.5,103.9,85.2,103.2,84.7,102.2L84.7,102.2z M129.8,72.9c-0.1-14.9-3.5-26.5-10.8-36.7
		C104.6,16.4,85.2,7.5,60.8,9.8c-2.2,0.2-3,1.3-2.2,3.3c1.7,4.4,3.6,8.7,5.3,13.1c0.4,1.1,1,1.4,2.1,1.2c1.8-0.3,3.6-0.5,5.4-0.5
		c20.9-0.1,37.3,18.4,34.9,41.5c-1,9.8-5.6,17.8-12.8,24.4c-1.4,1.3-1.5,2.3-0.8,4c2.9,6.8,5.6,13.6,8.4,20.4
		c1.6,3.8,2.3,4.1,5.5,1.5C121.7,106.3,129.3,90.2,129.8,72.9L129.8,72.9z M86.9,82.3c0.3-0.3,0.6-0.4,0.8-0.6
		c5.4-5.6,7.5-12.3,7.1-20C94.2,49.4,83.6,39,71.6,39c-1.5,0-2.5-0.1-1.9,2c0.7,2.4-0.8,4.7-3,5.4c-2.3,0.7-4.8-0.2-5.7-2.5
		c-0.8-2.2-1.7-1.4-2.8-0.5c-8.2,6.5-11.2,14.9-9.6,25.2c2,12.6,13.9,21.6,26,19.7c2.7-0.4,3.6-1.9,2.7-4.3
		c-0.1-0.3-0.2-0.6-0.3-0.9c-0.6-2.5,0.6-4.9,2.9-5.7c2.3-0.8,4.7,0.2,5.9,2.5C86.2,80.6,86.5,81.4,86.9,82.3L86.9,82.3z"/>
	<path class="st0" d="M74.9,137.2c-29-0.9-52-12.8-66.3-38.4C-9.8,65.9,2.4,25.6,35.7,7c1.1-0.6,2.2-1.2,3.3-1.8
		c0.7-0.3,1.5-0.7,2.3-0.4c3.2,1.1,3.1,4.3,4,6.7c0.7,1.8-0.8,2.8-2.2,3.6c-8.8,4.8-16.1,11.3-21.7,19.7C6.2,57.5,9,87.9,28.3,107.2
		c16.5,16.6,36.3,22.6,59.3,18.5c2.3-0.4,3.6,0.3,4.6,2.5c3.1,6.9,1.1,7.3-4.6,8.1c-2.4,0.4-4.8,0.7-7.2,0.9
		C78.5,137.3,76.7,137.2,74.9,137.2L74.9,137.2z"/>
	<path class="st1" d="M352.5,75.4c0,10.7,0,21.5,0,32.2c0,1.9-0.4,2.7-2.4,2.5c-2.4-0.2-4.9-0.1-7.3,0c-1.2,0-2.2,0.1-2.3-1.8
		c-0.1-1.6-1.1-0.4-1.6-0.1c-4.7,2.9-9.8,3.4-15,2.3c-8.9-2-13.4-8.4-15-16.8c-1.6-8.6-0.9-17.1,4.2-24.6
		c5.7-8.3,16.5-11.2,25.6-6.8c1.5,0.7,1.8,0.5,1.8-1.1c-0.1-6.1,0-12.2-0.1-18.3c0-1.7,0.4-2.4,2.2-2.3c2.5,0.2,5,0.2,7.5,0
		c1.8-0.1,2.2,0.6,2.2,2.3C352.5,53.8,352.5,64.6,352.5,75.4L352.5,75.4z M340.6,84.9c0-1.6,0.1-3.1,0-4.7c-0.6-5.2-3.8-8.6-8.5-9.1
		c-4.6-0.5-8.5,2.1-10.3,6.9c-1.7,4.8-1.8,9.8-0.5,14.8c1.3,4.9,4.8,7.6,9.2,7.7c4.4,0,8-2.9,9.5-7.6
		C340.7,90.3,340.7,87.6,340.6,84.9L340.6,84.9z"/>
	<path class="st1" d="M184.7,63.9c2.9-1.8,5.9-3.1,9.3-3.4c10.5-0.8,17.4,4.8,18.4,15.3c0.9,9.5,0.2,19,0.3,28.4
		c0.1,5.9,0,5.9-5.8,5.9s-5.9,0-5.9-5.8c-0.1-8.1,0.2-16.1-0.2-24.2c-0.1-1.2-0.2-2.3-0.5-3.5c-1.4-5.6-7.6-7.4-11.9-3.6
		c-3,2.6-4,6.1-4,9.9c0,8.3-0.1,16.6,0,24.9c0,1.7-0.4,2.4-2.2,2.2c-2.6-0.2-5.2-0.1-7.8,0c-1.4,0-1.9-0.3-1.9-1.8
		c0-21.9,0-43.9,0-65.8c0-1.5,0.6-1.8,1.9-1.8c2.7,0.1,5.3,0.1,8,0c1.6-0.1,2,0.5,2,2c-0.1,6.2,0,12.4,0,18.6
		C184.3,62.1,184.1,63,184.7,63.9L184.7,63.9z"/>
	<path class="st1" d="M418,92.5c0,4.4,0,8.4,0,12.5c0,0.6-0.4,1-0.8,1.3c-10.4,9.4-30.3,5.3-35.8-7.3c-4.8-11-2.5-25.3,5.4-32.8
		c6.1-5.8,13.3-7,21.1-4.6c7.5,2.3,11,8.1,12.5,15.4c0.7,3.6,0.5,7.3,0.7,11c0.1,1.8-0.8,2-2.2,2c-8.4-0.1-16.8,0.1-25.1-0.1
		c-2.2,0-2.4,0.7-1.9,2.5c1.9,7.1,9,10,16.7,6.9c3.3-1.3,5.8-3.7,8.4-5.9C417,93.1,417.3,92.9,418,92.5L418,92.5z M400.1,79.3
		c2.4,0,4.7,0,7,0c1.1,0,1.6-0.3,1.4-1.5c-0.5-3.4-3-6.1-6.4-6.6c-4.3-0.7-8.9,2.5-10,6.8c-0.3,1.2,0.3,1.3,1.2,1.3
		C395.5,79.3,397.8,79.3,400.1,79.3L400.1,79.3z"/>
	<path class="st1" d="M221.5,79.2c0-4.6,0-8.7,0-12.7c0-1,0.6-1.3,1.3-1.8c6.8-4.1,14.1-5.2,21.7-3.5c6.3,1.5,10.6,6.8,11.1,13.9
		c0.7,11.2,0.1,22.4,0.3,33.6c0,1-0.4,1.4-1.4,1.4c-3.1,0-6.1,0-9.2,0c-0.4,0-1.1,0.1-1.2-0.5c-0.1-2.5-1.3-1-2.1-0.6
		c-6.2,3-12.5,3.1-18.4-0.6c-5.6-3.5-6.7-9.2-6-15.3c0.8-7.2,6.1-12.2,14.4-13.6c3.4-0.6,6.8-1,10.2-1.5c1.4-0.2,1.8-0.6,1.4-2.1
		c-0.9-3.6-3.1-5.1-6.9-4.8c-4.2,0.4-7.9,1.9-11.1,4.6C224.4,76.8,223.2,77.8,221.5,79.2L221.5,79.2z M244,90.5
		c-0.5-0.4,0.7-2-1-1.8c-3.6,0.4-7.3,0.6-10.8,2c-2.2,0.9-3.1,2.5-2.9,5.3c0.2,2.3,1.5,3.7,3.7,4.2C238.7,101.6,243.9,97,244,90.5
		L244,90.5z"/>
	<path class="st1" d="M275,64.2c3.3-2,6.2-3.4,9.6-3.6c10.3-0.8,17.5,4.7,18.5,15c1.1,11,0.2,22.1,0.4,33.1c0,1-0.3,1.4-1.4,1.4
		c-3,0-6-0.1-8.9,0c-1.6,0-1.5-1-1.5-2c0-8,0-16,0-24c0-2.4-0.1-4.8-0.7-7.2c-0.6-2.6-1.7-4.8-4.5-5.5c-3-0.8-5.8-0.1-8,2.1
		c-2.6,2.6-3.4,5.9-3.4,9.4c0,8.3,0,16.6,0,24.9c0,1.7-0.4,2.4-2.2,2.3c-2.6-0.2-5.2-0.1-7.8,0c-1.3,0-2-0.3-2-1.8
		c0-15.1,0-30.1,0-45.2c0-1.5,0.6-1.8,2-1.8c2.4,0.1,4.7,0,7.1,0C273.9,61.4,275.8,61,275,64.2L275,64.2z"/>
	<path class="st1" d="M361.1,75.5c0-10.8,0-21.6,0-32.4c0-1.8,0.5-2.5,2.4-2.4c2.4,0.2,4.9,0.2,7.3,0c2-0.1,2.3,0.7,2.3,2.4
		c-0.1,12.6,0,25.2,0,37.8c0,9,0,18,0,27c0,1.7-0.5,2.3-2.2,2.2c-2.5-0.1-5-0.2-7.5,0c-1.9,0.1-2.2-0.6-2.2-2.3
		C361.1,97.1,361.1,86.3,361.1,75.5L361.1,75.5z"/>
	<path class="st0" d="M72.3,70c-5.2,0-9.2-4.1-9.2-9.2c0-4.9,4.5-9.4,9.3-9.4c5,0,9.2,4.3,9.2,9.3C81.6,66.2,77.8,70,72.3,70
		L72.3,70z"/>
</g>
</svg>
