<?xml version="1.0" encoding="UTF-8"?>
<svg id="Layer_2" data-name="Layer 2" xmlns="http://www.w3.org/2000/svg" viewBox="0 0 420.97 137.22">
  <defs>
    <style>
      .cls-1 {
        fill: #5479f7;
      }
    </style>
  </defs>
  <g id="_图层_1" data-name="图层 1">
    <path class="cls-1" d="M84.73,102.24c-4.34,4.55-8.54,8.94-12.74,13.34l-.68-.14c0-3.14-.08-6.29,.02-9.43,.17-5.22,.22-5.21-4.98-5.85-12.92-1.57-25.32-13.36-28.22-25.98-1.94-8.44-2.12-16.56,1.07-24.65,2.96-7.54,7.9-13.47,14.71-17.8,1.34-.85,1.53-1.56,.91-2.99-1.96-4.52-3.79-9.1-5.62-13.68-2.76-6.9,.79-13.05,8.17-14.2,38.78-6.04,75.6,20.69,80.91,59.61,3.81,27.95-6.2,50.73-28.79,67.76-6.11,4.61-12.96,2.55-15.88-4.51-2.63-6.36-5.21-12.75-7.82-19.12-.29-.72-.63-1.42-1.05-2.35Zm45.02-29.33c-.08-14.86-3.48-26.5-10.83-36.69-14.3-19.81-33.73-28.73-58.16-26.41-2.23,.21-2.97,1.33-2.18,3.31,1.73,4.37,3.56,8.69,5.29,13.06,.43,1.08,1,1.37,2.13,1.18,1.77-.29,3.58-.53,5.37-.54,20.92-.09,37.29,18.43,34.89,41.49-1.01,9.76-5.63,17.84-12.77,24.45-1.4,1.29-1.5,2.32-.78,4.02,2.89,6.77,5.59,13.61,8.37,20.43,1.56,3.82,2.34,4.07,5.47,1.49,15.14-12.44,22.75-28.53,23.21-45.8Zm-42.87,9.38c.35-.26,.61-.41,.82-.62,5.41-5.57,7.46-12.33,7.1-19.95-.58-12.34-11.17-22.72-23.19-22.75-1.52,0-2.46-.07-1.86,2.05,.69,2.43-.78,4.67-3.02,5.38-2.29,.72-4.79-.16-5.66-2.49-.81-2.16-1.65-1.41-2.78-.51-8.19,6.48-11.23,14.93-9.63,25.16,1.98,12.6,13.92,21.64,26.03,19.72q4.02-.64,2.65-4.34c-.11-.29-.25-.58-.32-.88-.62-2.53,.58-4.88,2.9-5.71,2.33-.84,4.73,.17,5.89,2.51,.38,.76,.69,1.56,1.07,2.44Z"/>
    <path class="cls-1" d="M74.87,137.18c-29.01-.87-51.98-12.78-66.34-38.44C-9.81,65.91,2.41,25.6,35.65,6.98c1.09-.61,2.19-1.21,3.31-1.77,.7-.35,1.46-.66,2.26-.38,3.18,1.1,3.14,4.26,4.04,6.7,.65,1.75-.75,2.81-2.25,3.62-8.85,4.78-16.12,11.31-21.7,19.7-15.11,22.7-12.3,53.01,6.94,72.36,16.46,16.56,36.31,22.61,59.27,18.46,2.26-.41,3.62,.27,4.61,2.48,3.06,6.87,1.08,7.29-4.63,8.14-2.4,.36-4.81,.67-7.23,.85-1.79,.14-3.6,.03-5.4,.03Z"/>
    <path class="cls-1" d="M352.53,75.43c0,10.74-.04,21.48,.04,32.22,.01,1.89-.38,2.68-2.43,2.54-2.42-.18-4.86-.07-7.29-.03-1.25,.02-2.18,.07-2.28-1.75-.08-1.58-1.15-.37-1.61-.09-4.67,2.88-9.77,3.45-14.96,2.3-8.92-1.98-13.37-8.36-14.95-16.81-1.61-8.62-.93-17.07,4.19-24.6,5.67-8.33,16.54-11.2,25.62-6.79,1.51,.74,1.84,.49,1.83-1.12-.06-6.11,.03-12.23-.06-18.34-.03-1.71,.39-2.39,2.21-2.28,2.5,.15,5.02,.15,7.52,0,1.84-.11,2.2,.6,2.19,2.29-.07,10.82-.04,21.64-.04,32.46Zm-11.95,9.5c0-1.56,.15-3.14-.03-4.69-.59-5.23-3.78-8.56-8.55-9.09-4.56-.51-8.54,2.07-10.27,6.87-1.74,4.85-1.84,9.84-.52,14.78,1.3,4.86,4.77,7.61,9.18,7.66,4.42,.04,8.05-2.86,9.54-7.62,.81-2.58,.77-5.24,.64-7.9Z"/>
    <path class="cls-1" d="M184.68,63.93c2.88-1.8,5.89-3.13,9.33-3.39,10.47-.81,17.4,4.85,18.35,15.31,.85,9.46,.21,18.95,.34,28.43,.08,5.87,.02,5.87-5.84,5.87s-5.86,0-5.91-5.8c-.07-8.07,.25-16.14-.2-24.21-.07-1.16-.24-2.34-.53-3.47-1.41-5.58-7.58-7.4-11.94-3.58-3.02,2.64-3.96,6.1-3.97,9.92-.03,8.31-.06,16.62,.03,24.92,.02,1.73-.44,2.36-2.23,2.25-2.58-.15-5.17-.09-7.76-.02-1.36,.04-1.93-.32-1.93-1.82,.04-21.95,.04-43.89,0-65.84,0-1.53,.6-1.84,1.95-1.81,2.66,.07,5.33,.1,7.99,0,1.58-.07,1.98,.54,1.96,2.03-.07,6.19-.04,12.38-.01,18.58,0,.82-.26,1.71,.37,2.64Z"/>
    <path class="cls-1" d="M417.97,92.48c0,4.41,0,8.44,0,12.48,0,.64-.38,.96-.8,1.33-10.41,9.37-30.3,5.31-35.83-7.32-4.81-10.99-2.53-25.26,5.36-32.8,6.07-5.79,13.34-7.04,21.14-4.63,7.46,2.31,10.96,8.13,12.45,15.42,.74,3.63,.52,7.33,.67,11,.07,1.8-.75,2-2.23,1.99-8.38-.05-16.77,.06-25.15-.08-2.22-.04-2.43,.72-1.94,2.54,1.9,7.05,9.02,9.98,16.69,6.88,3.27-1.33,5.78-3.69,8.4-5.92,.28-.24,.59-.43,1.23-.88Zm-17.88-13.18c2.35,0,4.7-.03,7.05,.01,1.08,.02,1.59-.27,1.42-1.48-.47-3.38-3.03-6.05-6.42-6.57-4.3-.67-8.92,2.49-10.04,6.76-.33,1.24,.26,1.3,1.18,1.29,2.27-.02,4.55,0,6.82,0Z"/>
    <path class="cls-1" d="M221.48,79.15c0-4.62,.01-8.66,0-12.71,0-.97,.65-1.34,1.33-1.76,6.76-4.1,14.07-5.25,21.7-3.46,6.33,1.48,10.62,6.76,11.05,13.93,.67,11.19,.15,22.41,.26,33.62,.01,1.02-.41,1.38-1.4,1.37-3.06-.03-6.12,0-9.17-.02-.45,0-1.14,.06-1.17-.49-.12-2.52-1.27-1.03-2.15-.6-6.24,2.98-12.51,3.1-18.38-.64-5.55-3.53-6.66-9.16-5.97-15.3,.8-7.15,6.12-12.2,14.4-13.6,3.4-.57,6.81-1.04,10.23-1.46,1.43-.17,1.84-.64,1.45-2.12-.95-3.61-3.06-5.12-6.93-4.79-4.19,.36-7.88,1.89-11.08,4.62-1.22,1.04-2.48,2.04-4.15,3.4Zm22.48,11.37c-.48-.41,.74-2.04-.96-1.84-3.63,.42-7.33,.6-10.78,2-2.25,.91-3.11,2.54-2.88,5.28,.19,2.32,1.5,3.69,3.72,4.23,5.61,1.37,10.82-3.15,10.9-9.68Z"/>
    <path class="cls-1" d="M275.02,64.18c3.28-2.01,6.2-3.36,9.57-3.62,10.28-.81,17.45,4.75,18.47,15.02,1.09,11.01,.24,22.09,.44,33.14,.02,.97-.34,1.44-1.36,1.43-2.98-.03-5.96-.06-8.94,.01-1.63,.04-1.45-1.01-1.45-2.03,0-8,.03-15.99-.02-23.99-.02-2.42-.08-4.85-.68-7.23-.65-2.56-1.72-4.76-4.51-5.48-3.02-.78-5.76-.14-8.02,2.09-2.63,2.6-3.42,5.9-3.43,9.45-.01,8.31-.05,16.62,.03,24.93,.02,1.7-.38,2.39-2.2,2.28-2.58-.15-5.17-.09-7.76-.02-1.34,.04-1.95-.27-1.95-1.8,.05-15.05,.05-30.11,0-45.16,0-1.53,.61-1.85,1.95-1.8,2.35,.07,4.7,.03,7.06,.02,1.65-.01,3.59-.46,2.81,2.77Z"/>
    <path class="cls-1" d="M361.1,75.47c0-10.81,.04-21.61-.04-32.42-.01-1.85,.49-2.48,2.35-2.37,2.42,.15,4.86,.17,7.28,0,1.96-.14,2.3,.68,2.29,2.42-.06,12.61-.03,25.21-.03,37.82,0,9-.04,18.01,.04,27.01,.02,1.74-.45,2.35-2.23,2.25-2.5-.14-5.02-.15-7.51,0-1.85,.11-2.19-.63-2.18-2.3,.07-10.81,.03-21.61,.03-32.42Z"/>
    <path class="cls-1" d="M72.31,70.02c-5.16,0-9.19-4.05-9.18-9.23,0-4.87,4.51-9.42,9.29-9.38,5.03,.04,9.21,4.29,9.19,9.34-.03,5.5-3.81,9.28-9.3,9.28Z"/>
  </g>
</svg>